<svg width="82" height="26" viewBox="0 0 82 26" fill="none" xmlns="http://www.w3.org/2000/svg">
<path d="M0.552656 25V0.879999H18.6247V7.54H8.90466V9.592H16.4647V16.18H8.90466V18.34H18.6247V25H0.552656ZM38.7425 0.159998V25H30.7865L30.7145 24.208C29.3945 25.048 28.1345 25.468 26.9345 25.468C24.2945 25.468 22.4465 24.664 21.3905 23.056C20.3345 21.424 19.8065 19.048 19.8065 15.928C19.8065 9.544 22.4585 6.352 27.7625 6.352L30.6785 6.568V0.159998H38.7425ZM29.5265 12.868C28.8785 12.868 28.4465 13.132 28.2305 13.66C28.0385 14.188 27.9425 14.944 27.9425 15.928C27.9425 16.888 28.0505 17.632 28.2665 18.16C28.4825 18.688 28.9145 18.952 29.5625 18.952L30.6785 18.844V12.976C30.1505 12.904 29.7665 12.868 29.5265 12.868ZM51.4617 6.82H59.5257V25H51.5337V24.136C49.9977 25.024 48.6297 25.468 47.4297 25.468C44.8857 25.468 43.1097 24.736 42.1017 23.272C41.0937 21.784 40.5897 19.432 40.5897 16.216V6.82H48.6537V15.676C48.6537 16.756 48.7497 17.5 48.9417 17.908C49.1337 18.316 49.4457 18.52 49.8777 18.52L51.4617 18.304V6.82ZM68.7471 0.879999L70.9431 7.504L73.7511 0.879999H81.9591L76.7391 12.364L81.6351 25H73.0671L70.9431 18.592L68.7471 25H60.2511L65.3991 13.444L60.2511 0.879999H68.7471Z" fill="white"/>
</svg>
