<svg width="22" height="22" viewBox="0 0 22 22" fill="none" xmlns="http://www.w3.org/2000/svg">
<g clip-path="url(#clip0)">
<path d="M19.6969 2.76292C17.2133 0.674636 13.3762 0.988307 11 3.40745C8.62383 0.988307 4.78672 0.670339 2.30313 2.76292C-0.92812 5.48284 -0.455464 9.91721 1.84766 12.2676L9.38438 19.9461C9.81407 20.3844 10.3898 20.6293 11 20.6293C11.6145 20.6293 12.1859 20.3887 12.6156 19.9504L20.1523 12.2719C22.4512 9.92151 22.9324 5.48714 19.6969 2.76292ZM18.6828 10.8196L11.1461 18.4981C11.043 18.6012 10.957 18.6012 10.8539 18.4981L3.31719 10.8196C1.74883 9.22112 1.43086 6.19612 3.63086 4.34417C5.30235 2.93909 7.88047 3.14964 9.4961 4.79534L11 6.32932L12.5039 4.79534C14.1281 3.14104 16.7063 2.93909 18.3691 4.33987C20.5648 6.19182 20.2383 9.23401 18.6828 10.8196Z" fill="#00C2EE"/>
</g>
<defs>
<clipPath id="clip0">
<rect width="22" height="22" fill="white"/>
</clipPath>
</defs>
</svg>
