<svg width="28" height="22" viewBox="0 0 28 22" fill="none" xmlns="http://www.w3.org/2000/svg">
<path d="M27.1797 11.9297L17.9922 21.1172C17.1719 21.9375 15.75 21.3633 15.75 20.1875V14.9375H8.3125C7.58516 14.9375 7 14.3523 7 13.625V8.375C7 7.64766 7.58516 7.0625 8.3125 7.0625H15.75V1.8125C15.75 0.642191 17.1664 0.0625035 17.9922 0.882816L27.1797 10.0703C27.6883 10.5844 27.6883 11.4156 27.1797 11.9297ZM10.5 20.8438V18.6563C10.5 18.2953 10.2047 18 9.84375 18H5.25C4.28203 18 3.5 17.218 3.5 16.25V5.75C3.5 4.78203 4.28203 4 5.25 4H9.84375C10.2047 4 10.5 3.70469 10.5 3.34375V1.15625C10.5 0.795316 10.2047 0.500003 9.84375 0.500003H5.25C2.35156 0.500003 0 2.85157 0 5.75V16.25C0 19.1484 2.35156 21.5 5.25 21.5H9.84375C10.2047 21.5 10.5 21.2047 10.5 20.8438Z" fill="white"/>
</svg>
